<?xml version="1.0" encoding="UTF-8"?><svg xmlns="http://www.w3.org/2000/svg" xmlns:xlink="http://www.w3.org/1999/xlink" width="14" height="32"><defs><path d="M14 9.3V6.73l-1.575-.264c-.117-.44-.292-.848-.496-1.2l.93-1.285-1.81-1.84-1.31.908c-.38-.205-.79-.38-1.196-.497L8.284 1H5.716l-.263 1.578c-.437.117-.816.293-1.196.497L2.975 2.17 1.137 3.98l.934 1.287c-.2.38-.376.79-.493 1.228L0 6.73V9.3l1.575.264c.117.438.292.818.496 1.198l-.93 1.315L2.95 13.89l1.312-.938c.38.205.787.38 1.224.497L5.746 15h2.566l.263-1.578c.408-.117.817-.293 1.196-.497l1.315.935 1.81-1.812-.935-1.315c.203-.38.38-.76.495-1.2L14 9.303zm-7 1.404c-1.488 0-2.683-1.2-2.683-2.69S5.542 5.327 7 5.327c1.458 0 2.683 1.198 2.683 2.69 0 1.49-1.195 2.688-2.683 2.688z" id="a"/></defs><use xlink:href="#a" fill="#808080"/><use transform="translate(0 16)" xlink:href="#a" fill="#555"/></svg>
