<?xml version="1.0" encoding="UTF-8"?><svg xmlns="http://www.w3.org/2000/svg" xmlns:xlink="http://www.w3.org/1999/xlink" width="14" height="32"><defs><path d="M13.582 6.632h-1.064c-.133-.538-.354-1.065-.645-1.552l.75-.75c.164-.164.164-.429 0-.593l-1.359-1.36c-.164-.164-.43-.164-.594 0l-.75.75c-.49-.294-1.012-.512-1.551-.645v-1.064c0-.231-.187-.418-.419-.418h-1.918c-.231 0-.418.187-.418.418v1.063c-.541.135-1.062.352-1.552.646l-.75-.75c-.164-.164-.429-.164-.593 0l-1.36 1.36c-.164.164-.164.429 0 .593l.75.75c-.292.488-.494 1.015-.627 1.551h-1.064c-.231 0-.418.187-.418.419v1.918c0 .231.187.418.418.418h1.046c.134.542.351 1.062.645 1.551l-.75.75c-.164.164-.164.429 0 .593l1.36 1.36c.164.164.429.164.593 0l.75-.75c.491.296 1.01.493 1.551.627v1.063c.001.233.188.42.419.42h1.918c.231 0 .419-.187.419-.418v-1.063c.542-.134 1.061-.333 1.551-.627l.75.75c.164.164.43.164.594 0l1.359-1.36c.164-.164.164-.429 0-.593l-.75-.75c.295-.489.51-1.013.645-1.551h1.064c.23-.002.418-.189.418-.42v-1.918c0-.232-.188-.418-.418-.418zm-6.582 4.012c-1.461 0-2.645-1.184-2.645-2.644s1.184-2.644 2.645-2.644 2.645 1.184 2.645 2.644-1.184 2.644-2.645 2.644z" id="a"/></defs><use xlink:href="#a" fill="#808080"/><use xlink:href="#a" transform="translate(0 16)" fill="#555"/></svg>