<?xml version="1.0" encoding="utf-8"?><svg xmlns="http://www.w3.org/2000/svg" viewBox="0 0 612 792" enable-background="new 0 0 612 792"><g fill="#777"><path d="M291.3 439.4c-39.5-38.9-73.9-72.7-93.7-150.5h138.4v-58.6h-138.4v-77.1h-59.3v77.8h-138.3v58.7h138.3v19.8c-19.7 76.9-43.3 126-138.3 173.8l19.8 58.7c89.9-48.4 137.1-107.7 158.1-175.3 19.8 51 53.5 91.8 91.8 130l21.6-57.3zM473.7 250h-79l-138.4 388.9h59.3l39.5-116.7h158.1l39.5 116.7h59.3l-138.3-388.9zm-98.8 214.2l59.3-155.5 59.3 155.6-118.6-.1z"/></g></svg>