<svg xmlns="http://www.w3.org/2000/svg" width="264" height="162" viewBox="0 0 264 162"><g><path fill="#fff" d="M13.366 161.357l-12.866-9.608v-151.249h263v151.749l-9 6.705v-116.454h-39v112.6l-4.393-3.731-7.607 5.33v-114.199h-155v110.85l-9.751 8.03-13.916-10.019z"/><path d="M263 1v150.998l-8 5.96v-115.958h-40v112.02l-3.274-2.781-.589-.498-.633.441-6.504 4.556v-113.738h-156v111.1l-9.257 7.66-13.295-9.57-.645-.463-.598.521-10.864 9.47-12.341-9.219v-150.499h262m1-1h-264v152l13.391 10 11.474-10 13.891 10 10.244-8.4v-110.6h154v114.66l8.078-5.66 4.922 4.18v-113.18h38v116.95l10-7.45v-152.5z" fill="#e5e5e5"/></g><path d="M203 157.66v-114.66h-154v110.6l2.145-1.6 12.555 10 13.809-10 14.229 10 12.972-10 12.973 10 13.811-10 12.136 10 13.391-10 14.229 10 12.972-10 12.974 10 5.804-4.34z" fill="#e5e5e5"/><path d="M11 36c0-7.732 6.268-14 14-14s14 6.268 14 14-6.268 14-14 14-14-6.268-14-14z" fill="#e5e5e5"/><path d="M254 159.95v-116.95h-38v113.18l7.551 5.82 13.811-10 13.891 10 2.747-2.05z" fill="#e5e5e5"/><path d="M38 107v-35h-25v35h25z" fill="#e5e5e5"/><path d="M232.51 5h26v6h-26v-6z" fill="#e5e5e5"/><path fill="#e5e5e5" d="M208.51 5h22v6h-22z"/><path d="M142 6v4h-92v-4h92m1-1h-94v6h94v-6z" fill="#e5e5e5"/><path fill="#e5e5e5" d="M184.51 5h22v6h-22z"/><path fill="#e5e5e5" d="M161.51 5h13v6h-13z"/><path fill="#e5e5e5" d="M176.51 5h6v6h-6z"/><path fill="#e5e5e5" d="M153.51 5h6v6h-6z"/><path fill="#e5e5e5" d="M9 5h32v6h-32z"/><path d="M2 14.5h260" fill="#e5e5e5" stroke="#e5e5e5"/><path fill="#e5e5e5" d="M52 7h2v2h-2z"/><path d="M38 59v-5h-25v5h25z" fill="#e5e5e5"/><path d="M38 132.625v-35h-25v35h25z" fill="#8acdff"/><rect width="20.438" height="2.176" rx=".151" ry=".107" x="15.281" y="108.59" fill="#fff"/><rect width="20.438" height="2.176" rx=".151" ry=".107" x="15.281" y="113.831" fill="#fff"/><rect width="20.438" height="6.188" rx=".151" ry=".303" x="15.281" y="124.313" fill="#2693ff"/><g transform="matrix(.747 0 0 .747 7.295 33.453)" fill="#fff"><rect width="1.823" height="1.882" rx=".013" ry=".092" x="20.273" y="125.738"/><rect width="1.823" height="1.882" rx=".013" ry=".092" x="26.655" y="125.738"/><rect width="1.823" height="1.882" rx=".013" ry=".092" x="23.464" y="125.738"/></g><rect width="20.438" height="2.176" rx=".151" ry=".107" x="15.281" y="103.349" fill="#fff"/><rect width="20.438" height="2.176" rx=".151" ry=".107" x="15.281" y="119.072" fill="#fff"/></svg>