<?xml version="1.0" encoding="UTF-8"?>
<svg xmlns="http://www.w3.org/2000/svg" width="264" height="162" viewBox="0 0 264 162">
	<defs>
		<clipPath id="jagged-edge">
			<path d="M0 0v152l12 10 12-10 12 10 12-10 12 10 12-10 12 10 12-10 12 10 12-10 12 10 12-10 12 10 12-10 12 10 12-10 12 10 12-10 12 10 12-10 12 10 12-10V0z"/>
		</clipPath>
	</defs>
	<g fill="#eaecf0" clip-path="url(#jagged-edge)">
		<path id="background" fill="#fff" d="M0 0h264v162H0"/>
		<path id="logo" d="M11 22c0-8 6-14 14-14s14 6 14 14-6 14-14 14-14-6-14-14m27 23v-5H13v5h25"/>
		<path id="sidebar" d="M38 130V58H13v72h25z"/>
		<path id="personal-tools" d="M233 5h26v6h-26V5zm-24 0h22v6h-22zm-24 0h22v6h-22zm-23 0h13v6h-13zm15 0h6v6h-6zm-23 0h6v6h-6z"/>
		<path id="search-input" d="M258 16v4h-92v-4h92m1-1h-94v6h94v-6z"/>
		<path id="search-icon" d="M168 17h2v2h-2z"/>
		<path id="article" d="M252 162V29H48v133z"/>
		<path id="border" d="M0 0v162h264V0zm1 1h262v150.533l-11 9.166-12-10-12 10-12-10-12 10-12-10-12 10-12-10-12 10-12-10-12 10-12-10-12 10-12-10-12 10-12-10-12 10-12-10-12 10-12-10-12 10-11-9z"/>
		<path fill="#36c" d="M38 132.625v-35H13v35h25z"/>
		<rect width="19" height="2" x="16" y="108.59" fill="#eaf3ff" rx=".151" ry=".107"/>
		<rect width="19" height="2" x="16" y="113.831" fill="#eaf3ff" rx=".151" ry=".107"/>
		<rect width="19" height="6" x="16" y="124.313" fill="#2a4b8d" rx=".151" ry=".303"/>
		<g fill="#fff" transform="matrix(.747 0 0 .747 7.295 33.453)">
			<rect width="2" height="2" x="20" y="125" rx=".013" ry=".092"/>
			<rect width="2" height="2" x="23" y="125" rx=".013" ry=".092"/>
			<rect width="2" height="2" x="26" y="125" rx=".013" ry=".092"/>
		</g>
		<rect width="19" height="2" x="16" y="103.349" fill="#eaf3ff" rx=".151" ry=".107"/>
		<rect width="19" height="2" x="16" y="119.072" fill="#eaf3ff" rx=".151" ry=".107"/>
	</g>
</svg>
