<svg xmlns="http://www.w3.org/2000/svg" width="264" height="162" viewBox="0 0 264 162"><g><path fill="#fff" d="M.5.5v151.749l9 6.705v-116.454h39v112.6l4.393-3.731 7.607 5.33v-114.199h155v110.85l9.751 8.03 13.916-10.019 11.467 9.996 12.866-9.608v-151.249z"/><path d="M1 1v150.998l8 5.96v-115.958h40v112.02l3.274-2.781.589-.498.633.441 6.504 4.556v-113.738h156v111.1l9.257 7.66 13.295-9.57.645-.463.598.521 10.864 9.47 12.341-9.219v-150.499h-262m-1-1h264v152l-13.391 10-11.474-10-13.891 10-10.244-8.4v-110.6h-154v114.66l-8.078-5.66-4.922 4.18v-113.18h-38v116.95l-10-7.45v-152.5z" fill="#e5e5e5"/></g><path d="M61 157.66v-114.66h154v110.6l-2.145-1.6-12.555 10-13.809-10-14.229 10-12.972-10-12.973 10-13.811-10-12.136 10-13.391-10-14.229 10-12.972-10-12.974 10-5.804-4.34z" fill="#e5e5e5"/><path d="M253 36c0-7.732-6.268-14-14-14s-14 6.268-14 14 6.268 14 14 14 14-6.268 14-14z" fill="#e5e5e5"/><path d="M10 159.95v-116.95h38v113.18l-7.551 5.82-13.811-10-13.891 10-2.747-2.05z" fill="#e5e5e5"/><path d="M226 107v-35h25v35h-25z" fill="#e5e5e5"/><path d="M31.49 5h-26v6h26v-6z" fill="#e5e5e5"/><path fill="#e5e5e5" d="M55.49 5h-22v6h22z"/><path d="M122 6v4h92v-4h-92m-1-1h94v6h-94v-6z" fill="#e5e5e5"/><path fill="#e5e5e5" d="M79.49 5h-22v6h22z"/><path fill="#e5e5e5" d="M102.49 5h-13v6h13z"/><path fill="#e5e5e5" d="M87.49 5h-6v6h6z"/><path fill="#e5e5e5" d="M110.49 5h-6v6h6z"/><path fill="#e5e5e5" d="M255 5h-32v6h32z"/><path d="M262 14.5h-260" fill="#e5e5e5" stroke="#e5e5e5"/><path fill="#e5e5e5" d="M212 7h-2v2h2z"/><path d="M226 59v-5h25v5h-25z" fill="#e5e5e5"/><path d="M226 132.625v-35h25v35h-25z" fill="#8acdff"/><rect width="20.438" height="2.176" rx=".151" ry=".107" x="-248.719" y="108.59" transform="scale(-1 1)" fill="#fff"/><rect width="20.438" height="2.176" rx=".151" ry=".107" x="-248.719" y="113.831" transform="scale(-1 1)" fill="#fff"/><rect width="20.438" height="6.188" rx=".151" ry=".303" x="-248.719" y="124.313" transform="scale(-1 1)" fill="#2693ff"/><g transform="matrix(-.747 0 0 .747 256.705 33.453)" fill="#fff"><rect width="1.823" height="1.882" rx=".013" ry=".092" x="20.273" y="125.738"/><rect width="1.823" height="1.882" rx=".013" ry=".092" x="26.655" y="125.738"/><rect width="1.823" height="1.882" rx=".013" ry=".092" x="23.464" y="125.738"/></g><rect width="20.438" height="2.176" rx=".151" ry=".107" x="-248.719" y="103.349" transform="scale(-1 1)" fill="#fff"/><rect width="20.438" height="2.176" rx=".151" ry=".107" x="-248.719" y="119.072" transform="scale(-1 1)" fill="#fff"/></svg>