<?xml version="1.0" encoding="UTF-8" standalone="no"?>
<svg xmlns="http://www.w3.org/2000/svg" id="svg2" viewBox="0 0 264 162" height="162" width="264">
    <defs id="defs78">
        <clipPath id="jagged-edge">
            <path d="M0 0v152l12 10 12-10 12 10 12-10 12 10 12-10 12 10 12-10 12 10 12-10 12 10 12-10 12 10 12-10 12 10 12-10 12 10 12-10 12 10 12-10 12 10 12-10V0z" id="path4213"/>
        </clipPath>
    </defs>
    <g transform="matrix(-1 0 0 1 264 0)" clip-path="url(#jagged-edge)" id="screenshot">
        <path id="background" d="M263.5 162.25l-263-.5V.5h263z" fill="#fff"/>
        <path id="article" d="M252 162.496V29H48v133.496z" fill="#e5e5e5"/>
        <path id="logo" d="M11 22c0-7.732 6.268-14 14-14s14 6.268 14 14-6.268 14-14 14-14-6.268-14-14z" fill="#e5e5e5"/>
        <path id="sidebar" d="M38 129.667V58H13v71.667h25z" fill="#e5e5e5"/>
        <g id="personal-tools" fill="#e5e5e5">
            <path d="M233 5h26v6h-26V5zm-24 0h22v6h-22zm-24 0h22v6h-22zm-23 0h13v6h-13zm15 0h6v6h-6zm-23 0h6v6h-6z" id="path4221"/>
        </g>
        <g id="search" fill="#e5e5e5">
            <path id="path5717" d="M258 16v4h-92v-4h92m1-1h-94v6h94v-6z"/>
            <path id="icon" d="M168 17h2v2h-2z"/>
        </g>
        <path id="sitename" d="M38 45v-5H13v5h25z" fill="#e5e5e5"/>
        <path d="M0 0v162h264V0zm1 1h262v150.533l-11 9.166-12-10-12 10-12-10-12 10-12-10-12 10-12-10-12 10-12-10-12 10-12-10-12 10-12-10-12 10-12-10-12 10-12-10-12 10-12-10-12 10-11-9.17z" id="border" fill="#e5e5e5"/>
        <path d="M38 132.625v-35H13v35h25z" id="path40" fill="#abc0ea"/>
        <rect width="20.438" height="2.176" rx=".151" ry=".107" x="15.281" y="108.59" id="rect42" fill="#fff"/>
        <rect width="20.438" height="2.176" rx=".151" ry=".107" x="15.281" y="113.831" id="rect44" fill="#fff"/>
        <rect width="20.438" height="6.188" rx=".151" ry=".303" x="15.281" y="124.313" id="rect46" fill="#36c"/>
        <g transform="matrix(.747 0 0 .747 7.295 33.453)" id="g48" fill="#fff">
            <rect width="1.823" height="1.882" rx=".013" ry=".092" x="20.273" y="125.738" id="rect50"/>
            <rect width="1.823" height="1.882" rx=".013" ry=".092" x="26.655" y="125.738" id="rect52"/>
            <rect width="1.823" height="1.882" rx=".013" ry=".092" x="23.464" y="125.738" id="rect54"/>
        </g>
        <rect width="20.438" height="2.176" rx=".151" ry=".107" x="15.281" y="103.349" id="rect56" fill="#fff"/>
        <rect width="20.438" height="2.176" rx=".151" ry=".107" x="15.281" y="119.072" id="rect58" fill="#fff"/>
    </g>
</svg>
