<?xml version="1.0" encoding="UTF-8"?><svg xmlns="http://www.w3.org/2000/svg" width="20" height="20"><path d="M.002 2.275v12.945h8.405c.535 1.624-.975 1.786-1.902 2.505 0 0 2.293-.024 3.439-.024 1.144 0 3.432.024 3.432.024-.905-.688-2.355-.868-1.902-2.505h8.527v-12.945h-20zm6.81 1.84h.797l3.313 8.466h-1.043l-1.043-2.638h-3.374l-1.043 2.638h-.982zm.368 1.104c-.084.369-.211.785-.368 1.227l-.982 2.577h2.699l-.982-2.577c-.128-.33-.234-.747-.368-1.227zm7.117.982c.753 0 1.295.157 1.656.491.365.334.552.858.552 1.595v4.294h-.675l-.184-.859h-.062c-.315.396-.605.655-.92.798-.311.138-.758.184-1.227.184-.626 0-1.115-.168-1.472-.491-.353-.323-.491-.754-.491-1.35 0-1.275 1.028-1.963 3.068-2.025h1.043v-.429c0-.495-.091-.87-.307-1.104-.211-.238-.574-.307-1.043-.307-.526 0-1.115.107-1.779.429l-.307-.675c.311-.169.674-.333 1.043-.429.373-.096.732-.123 1.104-.123zm.307 3.313c-.761.027-1.318.157-1.656.368-.334.207-.491.54-.491.982 0 .346.1.617.307.798.211.181.544.245.92.245.595 0 1.012-.164 1.35-.491.342-.326.552-.762.552-1.35v-.552z" fill="#434343"/></svg>