<?xml version="1.0" encoding="UTF-8" standalone="no"?>
<!-- Created with Inkscape (http://www.inkscape.org/) -->

<svg
   xmlns:dc="http://purl.org/dc/elements/1.1/"
   xmlns:cc="http://creativecommons.org/ns#"
   xmlns:rdf="http://www.w3.org/1999/02/22-rdf-syntax-ns#"
   xmlns:svg="http://www.w3.org/2000/svg"
   xmlns="http://www.w3.org/2000/svg"
   version="1.1"
   width="20"
   height="20"
   viewBox="0 0 20 20"
   id="Layer_1"
   xml:space="preserve"><metadata
   id="metadata7"><rdf:RDF><cc:Work
       rdf:about=""><dc:format>image/svg+xml</dc:format><dc:type
         rdf:resource="http://purl.org/dc/dcmitype/StillImage" /><dc:title></dc:title></cc:Work></rdf:RDF></metadata><defs
   id="defs5" />
<path
   d="m 0.00154839,2.2750125 0,12.9448005 8.40487521,0 c 0.5347618,1.623728 -0.9751922,1.786266 -1.9024949,2.505175 0,0 2.2928426,-0.02376 3.4393049,-0.02376 1.1439664,1.1e-5 3.4318164,0.02376 3.4318164,0.02376 -0.904899,-0.688379 -2.355198,-0.868416 -1.902494,-2.505176 l 8.527444,0 0,-12.9448005 -20,0 z m 6.80975041,1.840487 0.7974762,0 3.312991,8.4662625 -1.0429593,0 -1.0429593,-2.6380325 -3.37419,0 -1.0429597,2.6380325 -0.9815887,0 z m 0.368053,1.104296 c -0.084472,0.368776 -0.2106611,0.785288 -0.368053,1.227003 l -0.9815888,2.576679 2.6994552,0 -0.9815886,-2.576679 C 7.4200081,6.1164645 7.3138159,5.6999535 7.1793518,5.2197955 z m 7.1166042,0.981606 c 0.752827,1.7e-5 1.295339,0.156702 1.656496,0.490794 0.364777,0.334195 0.552165,0.857606 0.552165,1.595091 l 0,4.2944765 -0.674907,0 -0.184112,-0.858882 -0.06206,0 c -0.314956,0.395636 -0.605261,0.655428 -0.920218,0.797546 -0.311164,0.138256 -0.758344,0.18394 -1.2269,0.18394 -0.62612,0 -1.115191,-0.168253 -1.472383,-0.490795 -0.353399,-0.322645 -0.490794,-0.754292 -0.490794,-1.349692 0,-1.2752565 1.027789,-1.9630755 3.067508,-2.0245495 l 1.042787,0 0,-0.429441 c 0,-0.495483 -0.09137,-0.869966 -0.306682,-1.104296 -0.21135,-0.238157 -0.574403,-0.306733 -1.04296,-0.30675 -0.526134,1.7e-5 -1.114673,0.106882 -1.779064,0.429458 l -0.306856,-0.674855 c 0.311163,-0.169116 0.674217,-0.333403 1.042959,-0.429442 0.372708,-0.09602 0.731796,-0.122741 1.10433,-0.122741 z m 0.306854,3.312888 c -0.760584,0.02689 -1.318438,0.156874 -1.656495,0.368087 -0.334092,0.2074355 -0.490795,0.5398905 -0.490795,0.9816055 0,0.345711 0.09999,0.617001 0.306682,0.797545 0.211351,0.180613 0.543891,0.245397 0.920218,0.245397 0.595435,0 1.011757,-0.164287 1.349814,-0.490794 0.341849,-0.32649 0.552165,-0.761998 0.552165,-1.349693 l 0,-0.5521475 z"
   id="rect4908-5-1-5-9"
   style="fill:#434343;fill-opacity:1;stroke:none" /></svg>