<?xml version="1.0" encoding="UTF-8" standalone="no"?>
<!-- Created with Inkscape (http://www.inkscape.org/) -->

<svg
   xmlns:dc="http://purl.org/dc/elements/1.1/"
   xmlns:cc="http://creativecommons.org/ns#"
   xmlns:rdf="http://www.w3.org/1999/02/22-rdf-syntax-ns#"
   xmlns:svg="http://www.w3.org/2000/svg"
   xmlns="http://www.w3.org/2000/svg"
   version="1.1"
   width="32"
   height="32"
   viewBox="0 0 32 32"
   id="Layer_1"
   xml:space="preserve"><metadata
   id="metadata7"><rdf:RDF><cc:Work
       rdf:about=""><dc:format>image/svg+xml</dc:format><dc:type
         rdf:resource="http://purl.org/dc/dcmitype/StillImage" /><dc:title></dc:title></cc:Work></rdf:RDF></metadata><defs
   id="defs5" />
<path
   d="m 0.00247807,3.6367819 0,20.7171051 13.45132193,0 c 0.855843,2.598647 -1.560716,2.858775 -3.044789,4.009331 0,0 3.669509,-0.03803 5.504329,-0.03802 1.830825,1.8e-5 5.492344,0.03802 5.492344,0.03802 -1.448218,-1.101695 -3.769303,-1.38983 -3.044788,-4.009331 l 13.647484,0 0,-20.7171051 -32.00838,0 z m 10.89845393,2.9455513 1.276296,0 5.302174,13.5495688 -1.669172,0 -1.669172,-4.221958 -5.4001178,0 -1.6691724,4.221958 -1.5709533,0 z m 0.589039,1.767336 c -0.13519,0.590197 -0.337146,1.25679 -0.589039,1.9637188 l -1.5709533,4.123766 4.3202593,0 -1.570953,-4.123766 C 11.875122,9.7847162 11.70517,9.1181232 11.489971,8.3496692 z m 11.389549,1.570981 c 1.204839,2.8e-5 2.073084,0.2507898 2.651087,0.7854768 0.583797,0.534852 0.883696,1.372528 0.883696,2.552813 l 0,6.872962 -1.080134,0 -0.294657,-1.374571 -0.09932,0 c -0.504062,0.633182 -0.968672,1.048958 -1.472734,1.276407 -0.497993,0.221268 -1.213668,0.294381 -1.963554,0.294381 -1.002055,0 -1.784773,-0.269275 -2.35643,-0.785477 -0.565587,-0.516367 -0.785476,-1.207184 -0.785476,-2.160074 0,-2.040943 1.644893,-3.141741 4.909298,-3.240126 l 1.668896,0 0,-0.687285 c 0,-0.792981 -0.146225,-1.392311 -0.490819,-1.767336 -0.338249,-0.381151 -0.919287,-0.490902 -1.669173,-0.49093 -0.842035,2.8e-5 -1.783945,0.171056 -2.847249,0.687313 l -0.491098,-1.080051 c 0.497992,-0.270655 1.07903,-0.533584 1.669172,-0.687286 0.596488,-0.1536738 1.17118,-0.1964378 1.767391,-0.1964378 z m 0.491095,5.3020088 c -1.217254,0.04304 -2.110054,0.251065 -2.651087,0.589093 -0.534687,0.331986 -0.785477,0.864052 -0.785477,1.570981 0,0.553283 0.16002,0.987461 0.49082,1.276407 0.338249,0.289056 0.870453,0.392738 1.472734,0.392738 0.952946,0 1.619235,-0.262929 2.160268,-0.785477 0.547102,-0.52252 0.883696,-1.219516 0.883696,-2.160074 l 0,-0.883668 z"
   id="rect4908-5-1-5-9"
   style="fill:#434343;fill-opacity:1;stroke:none" /></svg>