<?xml version="1.0" encoding="UTF-8"?>
<svg xmlns="http://www.w3.org/2000/svg" width="18" height="18" viewBox="0 0 18 18">
	<path fill="#54595d" d="M9 1.5a7.5 7.5 0 1 0 .002 15.002A7.5 7.5 0 0 0 9 1.5zm-.001 11.943c-.613 0-1.067-.49-1.067-1.08 0-.614.454-1.093 1.067-1.093.59 0 1.068.479 1.068 1.093a1.08 1.08 0 0 1-1.068 1.08zm1.522-4.639c-.515.405-.712.663-.712 1.239v.356H8.238v-.43c0-1.081.32-1.522.822-1.915.504-.393.811-.602.811-1.166 0-.479-.295-.749-.883-.749-.504 0-.946.135-1.412.454l-.749-1.287c.613-.43 1.375-.737 2.381-.737 1.362 0 2.505.749 2.505 2.184-.001 1.019-.566 1.559-1.192 2.049z"/>
</svg>
