<?xml version="1.0" encoding="UTF-8"?>
<svg xmlns="http://www.w3.org/2000/svg" width="20" height="20" viewBox="0 0 20 20">
	<path fill="#202122" d="M10 0a10 10 0 1 0 10 10A10 10 0 0 0 10 0m1 16H9v-2h2zm2.71-7.6a2.6 2.6 0 0 1-.34.74 3 3 0 0 1-.48.55l-.54.48c-.21.18-.41.35-.59.52a3 3 0 0 0-.47.56A2.5 2.5 0 0 0 11 12a4 4 0 0 0-.11 1H9.08a9 9 0 0 1 .08-1.25 3.5 3.5 0 0 1 .24-.9 2.8 2.8 0 0 1 .41-.68 4.6 4.6 0 0 1 .58-.58l.51-.44a3 3 0 0 0 .44-.45 1.9 1.9 0 0 0 .3-.54 2.1 2.1 0 0 0 .11-.72 1.94 1.94 0 0 0-.18-.86 1.8 1.8 0 0 0-.43-.58 1.7 1.7 0 0 0-.54-.32 1.6 1.6 0 0 0-.5-.1 1.77 1.77 0 0 0-1.53.68 3 3 0 0 0-.49 1.82H6.16a4.8 4.8 0 0 1 .28-1.68 3.6 3.6 0 0 1 .8-1.29 3.6 3.6 0 0 1 1.27-.83A4.5 4.5 0 0 1 10.18 4a4.4 4.4 0 0 1 1.43.23 3.5 3.5 0 0 1 1.16.65 3 3 0 0 1 .78 1.06 3.5 3.5 0 0 1 .28 1.44 3.6 3.6 0 0 1-.12 1.02"/>
</svg>
