<?xml version="1.0" encoding="UTF-8" standalone="no"?>
<!-- Created with Inkscape (http://www.inkscape.org/) -->

<svg
   xmlns:dc="http://purl.org/dc/elements/1.1/"
   xmlns:cc="http://creativecommons.org/ns#"
   xmlns:rdf="http://www.w3.org/1999/02/22-rdf-syntax-ns#"
   xmlns:svg="http://www.w3.org/2000/svg"
   xmlns="http://www.w3.org/2000/svg"
   version="1.1"
   width="18"
   height="18"
   viewBox="0 0 18 18.000001"
   id="Layer_1"
   xml:space="preserve"><metadata
   id="metadata9"><rdf:RDF><cc:Work
       rdf:about=""><dc:format>image/svg+xml</dc:format><dc:type
         rdf:resource="http://purl.org/dc/dcmitype/StillImage" /><dc:title></dc:title></cc:Work></rdf:RDF></metadata><defs
   id="defs7" />
<path
   d="m 9.0000003,1.4996437 c -4.1414191,0 -7.5000004,3.357869 -7.5000004,7.5000014 0,4.1421309 3.3585813,7.5007119 7.5000004,7.5007119 C 13.142844,16.500357 16.5,13.141776 16.5,8.9996451 16.5,4.8575127 13.143556,1.4996437 9.0000003,1.4996437 z m -0.00142,11.9434423 c -0.6133062,0 -1.067053,-0.490074 -1.067053,-1.079874 0,-0.614018 0.4537468,-1.092697 1.067053,-1.092697 0.5897995,0 1.0684787,0.478679 1.0684787,1.092697 0,0.589087 -0.4786792,1.079874 -1.0684787,1.079874 z M 10.520808,8.8044702 C 10.005803,9.2090668 9.8084893,9.4676384 9.8084893,10.043191 V 10.39935 H 8.2378195 V 9.9698226 c 0,-1.0805866 0.319831,-1.521513 0.8220158,-1.914713 0.5036093,-0.3931991 0.8113306,-0.6019091 0.8113306,-1.1660648 0,-0.4786781 -0.2949,-0.7486467 -0.8832748,-0.7486467 -0.5036094,0 -0.9459591,0.1346281 -1.4118153,0.4544592 L 6.8274291,5.3076978 C 7.4407353,4.8774575 8.2022036,4.5711607 9.2079969,4.5711607 c 1.3619531,0 2.5045121,0.7486465 2.5045121,2.1839682 -7.12e-4,1.0186149 -0.56558,1.5585525 -1.191709,2.0493413 z"
   id="path3"
   style="fill:#575757" />
</svg>