<?xml version="1.0" encoding="UTF-8" standalone="no"?>
<!-- Created with Inkscape (http://www.inkscape.org/) -->

<svg
   xmlns:dc="http://purl.org/dc/elements/1.1/"
   xmlns:cc="http://creativecommons.org/ns#"
   xmlns:rdf="http://www.w3.org/1999/02/22-rdf-syntax-ns#"
   xmlns:svg="http://www.w3.org/2000/svg"
   xmlns="http://www.w3.org/2000/svg"
   version="1.1"
   width="20"
   height="20"
   viewBox="0 0 20 20"
   id="Layer_1"
   xml:space="preserve"><metadata
   id="metadata7"><rdf:RDF><cc:Work
       rdf:about=""><dc:format>image/svg+xml</dc:format><dc:type
         rdf:resource="http://purl.org/dc/dcmitype/StillImage" /><dc:title></dc:title></cc:Work></rdf:RDF></metadata><defs
   id="defs5" />
<path
   d="m 9.0039063,1.273431 c 0,0 -0.057538,0.142628 -0.1367188,0.3125 -0.074351,0.159513 -0.21466,0.32399 -0.2148437,0.332031 -0.046619,0.0035 -0.2342538,0.06652 -0.4882813,0.07813 -0.3387031,0.01547 -0.78251,0.0027 -1.25,-0.01953 -0.9349801,-0.04453 -1.93165,-0.133704 -2.5976563,-0.01953 l -0.019531,0 C 3.8943636,2.031972 3.608309,2.299852 3.3984377,2.582032 3.1854702,2.868374 3.0313191,3.193031 2.9296875,3.5 2.7742187,3.96958 2.7178409,4.330792 2.6953125,4.515625 L 0,4.515625 0,16 l 20,0 0,-11.484375 -16.3476562,0 C 3.6830768,4.329073 3.7311208,4.085961 3.828125,3.792969 3.910012,3.545638 4.0193271,3.291996 4.140625,3.128906 4.2619229,2.965817 4.379198,2.89437 4.4921875,2.875 4.8748566,2.8094 5.9028334,2.8687 6.8554687,2.91406 7.3317862,2.93674 7.80401,2.95182 8.203125,2.93359 8.60224,2.91536 8.9225694,2.93619 9.2578125,2.660152 9.5196606,2.444514 9.6068806,2.210954 9.7070313,1.99609 9.8071819,1.781226 9.8828125,1.585934 9.8828125,1.585934 l -0.8789062,-0.3125 z m -7.1093751,5.859375 1.5429688,0 c 0.096317,0 0.1757813,0.05993 0.1757813,0.15625 l 0,1.5625 c 0,0.09632 -0.079465,0.175781 -0.1757813,0.175781 l -1.5429688,0 c -0.096317,0 -0.1757812,-0.07947 -0.1757812,-0.175781 l 0,-1.5625 c 0,-0.09632 0.079465,-0.15625 0.1757812,-0.15625 z m 2.8320313,0 1.5429687,0 c 0.096316,0 0.1757813,0.05993 0.1757813,0.15625 l 0,1.5625 c 0,0.09632 -0.079465,0.175781 -0.1757813,0.175781 l -1.5429687,0 c -0.096317,0 -0.1757813,-0.07947 -0.1757813,-0.175781 l 0,-1.5625 c 0,-0.09632 0.079465,-0.15625 0.1757813,-0.15625 z m 2.8320312,0 1.5429688,0 c 0.096316,0 0.1757813,0.05993 0.1757813,0.15625 l 0,1.5625 c 0,0.09632 -0.079465,0.175781 -0.1757813,0.175781 l -1.5429688,0 c -0.096316,0 -0.1757812,-0.07947 -0.1757812,-0.175781 l 0,-1.5625 c 0,-0.09632 0.079465,-0.15625 0.1757812,-0.15625 z m 2.8320313,0 1.542969,0 c 0.09632,0 0.175781,0.05993 0.175781,0.15625 l 0,1.5625 c 0,0.09632 -0.07947,0.175781 -0.175781,0.175781 l -1.542969,0 c -0.09632,0 -0.175781,-0.07947 -0.175781,-0.175781 l 0,-1.5625 c 0,-0.09632 0.07947,-0.15625 0.175781,-0.15625 z m 2.832031,0 1.542969,0 c 0.09632,0 0.175781,0.05993 0.175781,0.15625 l 0,1.5625 c 0,0.09632 -0.07947,0.175781 -0.175781,0.175781 l -1.542969,0 c -0.09632,0 -0.175781,-0.07947 -0.175781,-0.175781 l 0,-1.5625 c 0,-0.09632 0.07947,-0.15625 0.175781,-0.15625 z m 2.832031,0 1.542969,0 c 0.09632,0 0.175781,0.05993 0.175781,0.15625 l 0,1.5625 c 0,0.09632 -0.07947,0.175781 -0.175781,0.175781 l -1.542969,0 c -0.09632,0 -0.175781,-0.07947 -0.175781,-0.175781 l 0,-1.5625 c 0,-0.09632 0.07946,-0.15625 0.175781,-0.15625 z m -12.8320307,3.007812 1.5429687,0 c 0.096317,0 0.1757812,0.07946 0.1757812,0.175782 l 0,1.542968 c 0,0.09632 -0.079465,0.175781 -0.1757812,0.175781 l -1.5429687,0 c -0.096317,0 -0.1757813,-0.07946 -0.1757813,-0.175781 l 0,-1.542968 c 0,-0.09632 0.079465,-0.175782 0.1757813,-0.175782 z m 2.9101562,0 1.5429687,0 c 0.096316,0 0.1757813,0.07946 0.1757813,0.175782 l 0,1.542968 c 0,0.09632 -0.079465,0.175781 -0.1757813,0.175781 l -1.5429687,0 c -0.096317,0 -0.1757813,-0.07946 -0.1757813,-0.175781 l 0,-1.542968 c 0,-0.09632 0.079465,-0.175782 0.1757813,-0.175782 z m 2.9101563,0 1.5625002,0 c 0.09632,0 0.175781,0.07946 0.175781,0.175782 l 0,1.542968 c 0,0.09632 -0.07947,0.175781 -0.175781,0.175781 l -1.5625002,0 c -0.096316,0 -0.1757813,-0.07946 -0.1757813,-0.175781 l 0,-1.542968 c 0,-0.09632 0.079465,-0.175782 0.1757813,-0.175782 z m 2.9296872,0 1.542969,0 c 0.09632,0 0.175781,0.07946 0.175781,0.175782 l 0,1.542968 c 0,0.09632 -0.07947,0.175781 -0.175781,0.175781 l -1.542969,0 c -0.09632,0 -0.175781,-0.07946 -0.175781,-0.175781 l 0,-1.542968 c 0,-0.09632 0.07947,-0.175782 0.175781,-0.175782 z m 2.910157,0 1.542968,0 c 0.09632,0 0.175781,0.07946 0.175781,0.175782 l 0,1.542968 c 0,0.09632 -0.07947,0.175781 -0.175781,0.175781 l -1.542968,0 c -0.09632,0 -0.175782,-0.07946 -0.175782,-0.175781 l 0,-1.542968 c 0,-0.09632 0.07946,-0.175782 0.175782,-0.175782 z m -10.8789068,3.554688 11.9921878,0 c 0.09632,0 0.15625,0.07946 0.15625,0.175781 l 0,0.800781 c 0,0.09632 -0.05993,0.175781 -0.15625,0.175781 l -11.9921878,0 c -0.096317,0 -0.1562499,-0.07947 -0.1562499,-0.175781 l 0,-0.800781 c 0,-0.09632 0.059933,-0.175781 0.1562499,-0.175781 z"
   id="path4443"
   style="font-size:medium;font-style:normal;font-variant:normal;font-weight:normal;font-stretch:normal;text-indent:0;text-align:start;text-decoration:none;line-height:normal;letter-spacing:normal;word-spacing:normal;text-transform:none;direction:ltr;block-progression:tb;writing-mode:lr-tb;text-anchor:start;baseline-shift:baseline;color:#000000;fill:#434343;fill-opacity:1;stroke:none;stroke-width:1.5;marker:none;visibility:visible;display:inline;overflow:visible;enable-background:accumulate;font-family:Sans;-inkscape-font-specification:Sans" /></svg>