<?xml version="1.0" encoding="UTF-8" standalone="no"?>
<!-- Created with Inkscape (http://www.inkscape.org/) -->

<svg
   xmlns:dc="http://purl.org/dc/elements/1.1/"
   xmlns:cc="http://creativecommons.org/ns#"
   xmlns:rdf="http://www.w3.org/1999/02/22-rdf-syntax-ns#"
   xmlns:svg="http://www.w3.org/2000/svg"
   xmlns="http://www.w3.org/2000/svg"
   version="1.1"
   width="32"
   height="32"
   viewBox="0 0 32 32"
   id="Layer_1"
   xml:space="preserve"><metadata
   id="metadata7"><rdf:RDF><cc:Work
       rdf:about=""><dc:format>image/svg+xml</dc:format><dc:type
         rdf:resource="http://purl.org/dc/dcmitype/StillImage" /><dc:title></dc:title></cc:Work></rdf:RDF></metadata><defs
   id="defs5" />
<path
   d="m 14.40625,2.4375 c 0,0 -0.09206,0.228205 -0.21875,0.5 -0.118962,0.255222 -0.343456,0.518385 -0.34375,0.53125 -0.07459,0.0056 -0.374806,0.106431 -0.78125,0.125 -0.541925,0.02476 -1.252016,0.0044 -2,-0.03125 C 9.5665318,3.49126 7.97186,3.348574 6.90625,3.53125 l -0.03125,0 c -0.6440186,0.119897 -1.1017059,0.548512 -1.4375,1 C 5.0967523,4.989398 4.8501105,5.50885 4.6875,6 4.4387499,6.751327 4.3485455,7.329266 4.3125,7.625 L 0,7.625 0,26 32,26 32,7.625 5.84375,7.625 C 5.8929222,7.326517 5.9697935,6.937537 6.125,6.46875 6.2560186,6.073021 6.4309233,5.667193 6.625,5.40625 6.8190767,5.145307 7.0067168,5.030991 7.1875,5 7.7997705,4.895039 9.4445334,4.98992 10.96875,5.0625 c 0.762108,0.03629 1.517666,0.06042 2.15625,0.03125 0.638584,-0.02917 1.151111,0.0042 1.6875,-0.4375 0.418957,-0.345022 0.558509,-0.718718 0.71875,-1.0625 C 15.691491,3.249968 15.8125,2.9375 15.8125,2.9375 l -1.40625,-0.5 z m -11.375,9.375 2.46875,0 c 0.1541065,0 0.28125,0.09589 0.28125,0.25 l 0,2.5 c 0,0.154106 -0.1271435,0.28125 -0.28125,0.28125 l -2.46875,0 C 2.8771435,14.84375 2.75,14.716606 2.75,14.5625 l 0,-2.5 c 0,-0.154106 0.1271435,-0.25 0.28125,-0.25 z m 4.53125,0 2.46875,0 c 0.154106,0 0.28125,0.09589 0.28125,0.25 l 0,2.5 c 0,0.154106 -0.127144,0.28125 -0.28125,0.28125 l -2.46875,0 c -0.1541065,0 -0.28125,-0.127144 -0.28125,-0.28125 l 0,-2.5 c 0,-0.154106 0.1271435,-0.25 0.28125,-0.25 z m 4.53125,0 2.46875,0 c 0.154106,0 0.28125,0.09589 0.28125,0.25 l 0,2.5 c 0,0.154106 -0.127144,0.28125 -0.28125,0.28125 l -2.46875,0 c -0.154106,0 -0.28125,-0.127144 -0.28125,-0.28125 l 0,-2.5 c 0,-0.154106 0.127144,-0.25 0.28125,-0.25 z m 4.53125,0 2.46875,0 c 0.154106,0 0.28125,0.09589 0.28125,0.25 l 0,2.5 c 0,0.154106 -0.127144,0.28125 -0.28125,0.28125 l -2.46875,0 c -0.154106,0 -0.28125,-0.127144 -0.28125,-0.28125 l 0,-2.5 c 0,-0.154106 0.127144,-0.25 0.28125,-0.25 z m 4.53125,0 2.46875,0 c 0.154106,0 0.28125,0.09589 0.28125,0.25 l 0,2.5 c 0,0.154106 -0.127144,0.28125 -0.28125,0.28125 l -2.46875,0 c -0.154106,0 -0.28125,-0.127144 -0.28125,-0.28125 l 0,-2.5 c 0,-0.154106 0.127144,-0.25 0.28125,-0.25 z m 4.53125,0 2.46875,0 c 0.154106,0 0.28125,0.09589 0.28125,0.25 l 0,2.5 c 0,0.154106 -0.127144,0.28125 -0.28125,0.28125 l -2.46875,0 c -0.154106,0 -0.28125,-0.127144 -0.28125,-0.28125 l 0,-2.5 c 0,-0.154106 0.127144,-0.25 0.28125,-0.25 z m -20.53125,4.8125 2.46875,0 c 0.1541065,0 0.28125,0.127144 0.28125,0.28125 l 0,2.46875 c 0,0.154106 -0.1271435,0.28125 -0.28125,0.28125 l -2.46875,0 C 5.0021435,19.65625 4.875,19.529106 4.875,19.375 l 0,-2.46875 c 0,-0.154106 0.1271435,-0.28125 0.28125,-0.28125 z m 4.65625,0 2.46875,0 c 0.154106,0 0.28125,0.127144 0.28125,0.28125 l 0,2.46875 c 0,0.154106 -0.127144,0.28125 -0.28125,0.28125 l -2.46875,0 c -0.1541065,0 -0.28125,-0.127144 -0.28125,-0.28125 l 0,-2.46875 c 0,-0.154106 0.1271435,-0.28125 0.28125,-0.28125 z m 4.65625,0 2.5,0 c 0.154106,0 0.28125,0.127144 0.28125,0.28125 l 0,2.46875 c 0,0.154106 -0.127144,0.28125 -0.28125,0.28125 l -2.5,0 c -0.154106,0 -0.28125,-0.127144 -0.28125,-0.28125 l 0,-2.46875 c 0,-0.154106 0.127144,-0.28125 0.28125,-0.28125 z m 4.6875,0 2.46875,0 c 0.154106,0 0.28125,0.127144 0.28125,0.28125 l 0,2.46875 c 0,0.154106 -0.127144,0.28125 -0.28125,0.28125 l -2.46875,0 c -0.154106,0 -0.28125,-0.127144 -0.28125,-0.28125 l 0,-2.46875 c 0,-0.154106 0.127144,-0.28125 0.28125,-0.28125 z m 4.65625,0 2.46875,0 c 0.154106,0 0.28125,0.127144 0.28125,0.28125 l 0,2.46875 c 0,0.154106 -0.127144,0.28125 -0.28125,0.28125 l -2.46875,0 c -0.154106,0 -0.28125,-0.127144 -0.28125,-0.28125 l 0,-2.46875 c 0,-0.154106 0.127144,-0.28125 0.28125,-0.28125 z m -17.40625,5.6875 19.1875,0 c 0.154106,0 0.25,0.127144 0.25,0.28125 l 0,1.28125 c 0,0.154106 -0.09589,0.28125 -0.25,0.28125 l -19.1875,0 c -0.1541065,0 -0.25,-0.127144 -0.25,-0.28125 l 0,-1.28125 c 0,-0.154106 0.095893,-0.28125 0.25,-0.28125 z"
   id="path4443"
   style="font-size:medium;font-style:normal;font-variant:normal;font-weight:normal;font-stretch:normal;text-indent:0;text-align:start;text-decoration:none;line-height:normal;letter-spacing:normal;word-spacing:normal;text-transform:none;direction:ltr;block-progression:tb;writing-mode:lr-tb;text-anchor:start;baseline-shift:baseline;color:#000000;fill:#434343;fill-opacity:1;stroke:none;stroke-width:1.5;marker:none;visibility:visible;display:inline;overflow:visible;enable-background:accumulate;font-family:Sans;-inkscape-font-specification:Sans" /></svg>