<?xml version="1.0" encoding="UTF-8" standalone="no"?>
<!-- Created with Inkscape (http://www.inkscape.org/) -->

<svg
   xmlns:dc="http://purl.org/dc/elements/1.1/"
   xmlns:cc="http://creativecommons.org/ns#"
   xmlns:rdf="http://www.w3.org/1999/02/22-rdf-syntax-ns#"
   xmlns:svg="http://www.w3.org/2000/svg"
   xmlns="http://www.w3.org/2000/svg"
   version="1.1"
   width="20"
   height="16"
   viewBox="0 0 20 16"
   id="Layer_1"
   xml:space="preserve"><metadata
   id="metadata7"><rdf:RDF><cc:Work
       rdf:about=""><dc:format>image/svg+xml</dc:format><dc:type
         rdf:resource="http://purl.org/dc/dcmitype/StillImage" /><dc:title></dc:title></cc:Work></rdf:RDF></metadata><defs
   id="defs5" />
<path
   d="m 9.203125,0.86425174 c 0,0 -0.046035,0.114102 -0.1093749,0.24999916 -0.059486,0.1276119 -0.1717269,0.2591933 -0.1718747,0.265625 -0.037299,0.00282 -0.1874024,0.05322 -0.3906245,0.062496 -0.2709628,0.012376 -0.6260083,0.00217 -1,-0.015626 C 6.7832665,1.3911249 5.98593,1.3197852 5.4531254,1.4111192 l -0.01562,0 C 5.1154955,1.4710694 4.8866516,1.6853747 4.7187552,1.9111185 4.5483819,2.1401927 4.4250607,2.3999192 4.3437554,2.6454936 4.2193799,3.0211572 4.1742776,3.3101273 4.1562548,3.4579945 L 2,3.4580019 l 0,9.1875011 16,0 0,-9.1875011 -13.0781245,0 C 4.9464624,3.3087594 4.9849,3.1142694 5.0624997,2.8798765 5.1280083,2.6820118 5.2154622,2.4790982 5.3125,2.3486264 5.409539,2.2181547 5.5033583,2.1609973 5.5937508,2.1455015 c 0.3061346,-0.052483 1.1285161,-0.00498 1.890625,0.031254 0.3810539,0.018142 0.7588323,0.030213 1.0781244,0.015627 0.3192921,-0.014586 0.575556,0.00206 0.8437511,-0.2187497 C 9.6157286,1.801122 9.6855051,1.614273 9.7656253,1.4423825 9.8457479,1.2704918 9.9062507,1.1142574 9.9062507,1.1142574 L 9.203125,0.86425824 z m -5.6874998,4.68749966 1.2343744,0 c 0.077057,0 0.1406254,0.047943 0.1406254,0.1250001 l 0,1.2500013 c 0,0.077045 -0.06357,0.1406242 -0.1406254,0.1406242 l -1.2343744,0 c -0.077057,0 -0.1406254,-0.06357 -0.1406254,-0.1406242 l 0,-1.2500013 c 0,-0.077051 0.06357,-0.1250001 0.1406254,-0.1250001 z m 2.2656249,0 1.2343756,0 c 0.077057,0 0.1406254,0.047943 0.1406254,0.1250001 l 0,1.2500013 c 0,0.077045 -0.06357,0.1406242 -0.1406254,0.1406242 l -1.2343756,0 c -0.077057,0 -0.1406242,-0.06357 -0.1406242,-0.1406242 l 0,-1.2500013 c 0,-0.077051 0.06357,-0.1250001 0.1406242,-0.1250001 z m 2.2656249,0 1.2343756,0 c 0.077057,0 0.1406254,0.047943 0.1406254,0.1250001 l 0,1.2500013 c 0,0.077045 -0.06357,0.1406242 -0.1406254,0.1406242 l -1.2343756,0 c -0.077057,0 -0.1406242,-0.06357 -0.1406242,-0.1406242 l 0,-1.2500013 c 0,-0.077051 0.06357,-0.1250001 0.1406242,-0.1250001 z m 2.265626,0 1.234374,0 c 0.07706,0 0.140626,0.047943 0.140626,0.1250001 l 0,1.2500013 c 0,0.077045 -0.06357,0.1406242 -0.140626,0.1406242 l -1.234374,0 c -0.07706,0 -0.140625,-0.06357 -0.140625,-0.1406242 l 0,-1.2500013 c 0,-0.077051 0.06357,-0.1250001 0.140625,-0.1250001 z m 2.265625,0 1.234376,0 c 0.07704,0 0.140624,0.047943 0.140624,0.1250001 l 0,1.2500013 c 0,0.077045 -0.06357,0.1406242 -0.140624,0.1406242 l -1.234376,0 c -0.07706,0 -0.140625,-0.06357 -0.140625,-0.1406242 l 0,-1.2500013 c 0,-0.077051 0.06357,-0.1250001 0.140625,-0.1250001 z m 2.265624,0 1.234375,0 c 0.07705,0 0.140624,0.047943 0.140624,0.1250001 l 0,1.2500013 c 0,0.077045 -0.06357,0.1406242 -0.140624,0.1406242 l -1.234375,0 c -0.07705,0 -0.140626,-0.06357 -0.140626,-0.1406242 l 0,-1.2500013 c 0,-0.077051 0.06357,-0.1250001 0.140626,-0.1250001 z m -10.265625,2.4062507 1.2343756,0 c 0.077057,0 0.1406242,0.06357 0.1406242,0.1406254 l 0,1.234374 c 0,0.077045 -0.06357,0.1406254 -0.1406242,0.1406254 l -1.2343756,0 c -0.077057,0 -0.1406254,-0.06357 -0.1406254,-0.1406254 l 0,-1.234374 c 0,-0.077045 0.06357,-0.1406254 0.1406254,-0.1406254 z m 2.3281258,0 1.2343744,0 c 0.077057,0 0.1406254,0.06357 0.1406254,0.1406254 l 0,1.234374 c 0,0.077045 -0.06357,0.1406254 -0.1406254,0.1406254 l -1.2343744,0 c -0.077057,0 -0.1406254,-0.06357 -0.1406254,-0.1406254 l 0,-1.234374 c 0,-0.077045 0.06357,-0.1406254 0.1406254,-0.1406254 z m 2.3281246,0 1.2500006,0 c 0.07706,0 0.140625,0.06357 0.140625,0.1406254 l 0,1.234374 c 0,0.077045 -0.06357,0.1406254 -0.140625,0.1406254 l -1.2500006,0 c -0.077057,0 -0.1406253,-0.06357 -0.1406253,-0.1406254 l 0,-1.234374 c 0,-0.077045 0.06357,-0.1406254 0.1406253,-0.1406254 z m 2.3437506,0 1.234374,0 c 0.07706,0 0.140626,0.06357 0.140626,0.1406254 l 0,1.234374 c 0,0.077045 -0.06357,0.1406254 -0.140626,0.1406254 l -1.234374,0 c -0.07706,0 -0.140626,-0.06357 -0.140626,-0.1406254 l 0,-1.234374 c 0,-0.077045 0.06357,-0.1406254 0.140626,-0.1406254 z m 2.328125,0 1.234374,0 c 0.07705,0 0.140626,0.06357 0.140626,0.1406254 l 0,1.234374 c 0,0.077045 -0.06357,0.1406254 -0.140626,0.1406254 l -1.234374,0 c -0.07705,0 -0.140626,-0.06357 -0.140626,-0.1406254 l 0,-1.234374 c 0,-0.077045 0.06357,-0.1406254 0.140626,-0.1406254 z m -8.7031259,2.8437499 9.5937509,0 c 0.07704,0 0.124999,0.06357 0.124999,0.140625 l 0,0.640625 c 0,0.07706 -0.04794,0.140625 -0.124999,0.140625 l -9.5937509,0 c -0.077057,0 -0.1249996,-0.06357 -0.1249996,-0.140625 l 0,-0.640625 c 0,-0.07705 0.04795,-0.140625 0.1249996,-0.140625 z"
   id="path4443"
   style="font-size:medium;font-style:normal;font-variant:normal;font-weight:normal;font-stretch:normal;text-indent:0;text-align:start;text-decoration:none;line-height:normal;letter-spacing:normal;word-spacing:normal;text-transform:none;direction:ltr;block-progression:tb;writing-mode:lr-tb;text-anchor:start;baseline-shift:baseline;color:#000000;fill:#565656;fill-opacity:1;stroke:none;stroke-width:1.5;marker:none;visibility:visible;display:inline;overflow:visible;enable-background:accumulate;font-family:Sans;-inkscape-font-specification:Sans" /><rect
   width="1.211776"
   height="20.600193"
   x="12.122033"
   y="-11.714309"
   transform="matrix(0.70710678,0.70710678,-0.70710678,0.70710678,0,0)"
   id="rect2982-0-9"
   style="fill:#565656;fill-opacity:1;stroke:none" /></svg>