<?xml version="1.0" encoding="UTF-8"?>
<svg xmlns="http://www.w3.org/2000/svg" width="20" height="16" viewBox="0 0 20 16">
	<path fill="#222" d="M9.2.825c-.1.207-.148.479-.4.55-.44.065-.906.015-1.35 0-.693-.025-1.387-.118-2.076 0-.47.126-.762.582-.95 1A4.323 4.323 0 0 0 4.149 3.4h-2.15v9.2h16V3.4H4.922c.087-.416.163-.846.45-1.175.178-.185.47-.136.7-.15.97.002 1.933.143 2.9.05.371-.047.65-.364.776-.7l.15-.35-.7-.251zM3.5 5.5h1.25a.16.16 0 0 1 .15.15v1.225a.16.16 0 0 1-.15.15H3.5c-.075 0-.125-.074-.125-.15V5.65c0-.075.05-.15.125-.15zm2.275 0h1.25c.076 0 .125.074.125.15v1.225c0 .075-.05.15-.124.15h-1.25c-.076 0-.126-.074-.126-.15V5.65c0-.075.05-.15.125-.15zm2.275 0H9.3c.076 0 .126.074.126.15v1.225c0 .075-.05.15-.125.15H8.05a.161.161 0 0 1-.151-.15V5.65a.16.16 0 0 1 .15-.15zm2.25 0h1.251a.16.16 0 0 1 .15.15v1.225a.16.16 0 0 1-.15.15h-1.25c-.075 0-.125-.074-.125-.15V5.65c0-.075.05-.15.125-.15zm2.276 0h1.25c.076 0 .125.074.125.15v1.225c0 .075-.05.15-.125.15h-1.25c-.075 0-.125-.074-.125-.15V5.65c0-.075.05-.15.125-.15zm2.275 0h1.225a.16.16 0 0 1 .15.15v1.225a.16.16 0 0 1-.15.15h-1.225a.161.161 0 0 1-.15-.15V5.65a.16.16 0 0 1 .15-.15zM4.576 7.9h1.25c.076 0 .125.074.125.15V9.3c0 .076-.05.126-.125.126h-1.25c-.075 0-.125-.05-.125-.125V8.05c0-.076.05-.151.125-.151zm2.325 0h1.25a.16.16 0 0 1 .15.15V9.3c0 .076-.074.126-.15.126h-1.25c-.075 0-.125-.05-.125-.125V8.05c0-.076.05-.151.125-.151zm2.35 0h1.225a.16.16 0 0 1 .15.15V9.3c0 .076-.074.126-.15.126H9.251c-.075 0-.15-.05-.15-.125V8.05c0-.076.074-.151.15-.151zm2.325 0h1.25c.076 0 .125.074.125.15V9.3c0 .076-.05.126-.125.126h-1.25c-.075 0-.15-.05-.15-.125V8.05c0-.076.074-.151.15-.151zm2.325 0h1.25c.075 0 .125.074.125.15V9.3c0 .076-.05.126-.125.126h-1.25c-.075 0-.125-.05-.125-.125V8.05c0-.076.05-.151.125-.151zm-8.7 2.85h9.6c.07 0 .125.055.125.125v.675c0 .07-.055.125-.125.125H5.2a.123.123 0 0 1-.125-.125v-.675c0-.07.054-.125.125-.125z"/>
	<path stroke="#222" stroke-width="1.2" d="M2.719 15.279L17.28.72"/>
</svg>
